<svg xmlns="http://www.w3.org/2000/svg" fill="none" viewBox="2.85 4.35 19.3 15.3">
<path d="M17 19H21.5V17.25C21.5 16.7045 21.3251 16.1725 20.9997 15.728C20.6744 15.2836 20.2146 14.9487 19.6845 14.77C19.1543 14.5913 18.5801 14.5776 18.0415 14.7309C17.503 14.8841 17.027 15.1967 16.6796 15.6251M17 19L16.6796 15.6251M17 19H8M17 19V17.25C17 16.676 16.8866 16.1274 16.6796 15.6251M16.6796 15.6251C16.3454 14.8131 15.7686 14.117 15.0236 13.6267C14.2786 13.1364 13.3996 12.8744 12.5 12.8744C11.6004 12.8744 10.7214 13.1364 9.9764 13.6267C9.23142 14.117 8.65462 14.8131 8.3204 15.6251M8 19H3.5V17.25C3.50004 16.7045 3.6749 16.1725 4.00028 15.728C4.32565 15.2836 4.78537 14.9487 5.31553 14.77C5.84568 14.5913 6.41994 14.5776 6.95846 14.7309C7.49699 14.8841 7.97303 15.1967 8.3204 15.6251M8 19L8.3204 15.6251M8 19V17.25C8 16.676 8.1134 16.1274 8.3204 15.6251M15.2 7.625C15.2 8.32119 14.9155 8.98887 14.4092 9.48116C13.9028 9.97344 13.2161 10.25 12.5 10.25C11.7839 10.25 11.0972 9.97344 10.5908 9.48116C10.0845 8.98887 9.8 8.32119 9.8 7.625C9.8 6.92881 10.0845 6.26113 10.5908 5.76884C11.0972 5.27656 11.7839 5 12.5 5C13.2161 5 13.9028 5.27656 14.4092 5.76884C14.9155 6.26113 15.2 6.92881 15.2 7.625ZM20.6 10.25C20.6 10.7141 20.4104 11.1592 20.0728 11.4874C19.7352 11.8156 19.2774 12 18.8 12C18.3226 12 17.8648 11.8156 17.5272 11.4874C17.1896 11.1592 17 10.7141 17 10.25C17 9.78587 17.1896 9.34075 17.5272 9.01256C17.8648 8.68437 18.3226 8.5 18.8 8.5C19.2774 8.5 19.7352 8.68437 20.0728 9.01256C20.4104 9.34075 20.6 9.78587 20.6 10.25ZM8 10.25C8 10.7141 7.81036 11.1592 7.47279 11.4874C7.13523 11.8156 6.67739 12 6.2 12C5.72261 12 5.26477 11.8156 4.92721 11.4874C4.58964 11.1592 4.4 10.7141 4.4 10.25C4.4 9.78587 4.58964 9.34075 4.92721 9.01256C5.26477 8.68437 5.72261 8.5 6.2 8.5C6.67739 8.5 7.13523 8.68437 7.47279 9.01256C7.81036 9.34075 8 9.78587 8 10.25Z" stroke="#F56737" stroke-width="1.3" stroke-linecap="round" stroke-linejoin="round"/>
</svg>