<svg xmlns="http://www.w3.org/2000/svg" fill="none" viewBox="0.5 0 15 15">
<path d="M13.6408 8.27389C13.4752 8.27389 13.3021 8.22104 13.1365 8.1833C12.8012 8.10919 12.4716 8.01079 12.1505 7.88889C11.8013 7.76149 11.4174 7.7681 11.0728 7.90746C10.7282 8.04683 10.4471 8.30909 10.2837 8.64378L10.1182 8.98349C9.38503 8.57447 8.71134 8.06646 8.11597 7.4737C7.52492 6.87659 7.01839 6.20094 6.61056 5.46568L6.9267 5.25431C7.26042 5.09043 7.52192 4.80856 7.66088 4.46294C7.79984 4.11732 7.80643 3.73237 7.6794 3.38217C7.55989 3.05939 7.46182 2.72903 7.38585 2.39326C7.34821 2.22718 7.3181 2.05355 7.29552 1.87993C7.20412 1.34819 6.92641 0.866664 6.51243 0.522052C6.09844 0.177441 5.57537 -0.00760469 5.03742 0.00023953H2.77931C2.45492 -0.00281518 2.13368 0.0642647 1.83746 0.196913C1.54124 0.32956 1.277 0.524662 1.06272 0.768935C0.848439 1.01321 0.689155 1.30092 0.59571 1.61248C0.502265 1.92404 0.476852 2.25213 0.521202 2.57443C0.922195 5.73697 2.36233 8.6754 4.61413 10.9256C6.86594 13.1757 9.80105 14.6093 12.9558 15H13.2419C13.7969 15.0008 14.3328 14.7966 14.7473 14.4263C14.9854 14.2127 15.1756 13.9508 15.3054 13.658C15.4351 13.3652 15.5015 13.0482 15.5 12.7278V10.4631C15.4908 9.93872 15.3004 9.43382 14.9613 9.03457C14.6222 8.63531 14.1555 8.36646 13.6408 8.27389ZM14.0172 12.8033C14.017 12.9104 13.9941 13.0164 13.95 13.114C13.9059 13.2116 13.8415 13.2987 13.7612 13.3694C13.6774 13.4427 13.5791 13.4973 13.4727 13.5298C13.3663 13.5624 13.2543 13.572 13.144 13.5581C10.3251 13.1957 7.70668 11.9023 5.70184 9.88203C3.697 7.86178 2.41983 5.22965 2.07177 2.4008C2.05979 2.29023 2.07029 2.17836 2.10263 2.07197C2.13497 1.96557 2.18849 1.86686 2.25994 1.78179C2.33048 1.70127 2.4173 1.63673 2.51464 1.59248C2.61198 1.54822 2.7176 1.52526 2.82447 1.52513H5.08258C5.25762 1.52122 5.42854 1.57863 5.56592 1.68748C5.7033 1.79633 5.79855 1.94981 5.83528 2.12149C5.86539 2.32783 5.90302 2.53165 5.94818 2.73296C6.03514 3.1309 6.15086 3.52196 6.29443 3.90304L5.24064 4.39373C5.15054 4.43519 5.0695 4.49409 5.00216 4.56705C4.93482 4.64001 4.88251 4.72559 4.84824 4.81888C4.81397 4.91217 4.79841 5.01133 4.80246 5.11067C4.8065 5.21 4.83008 5.30756 4.87182 5.39774C5.95511 7.72489 7.82034 9.59556 10.1407 10.682C10.324 10.7575 10.5295 10.7575 10.7128 10.682C10.8067 10.6483 10.8929 10.5963 10.9666 10.5289C11.0402 10.4615 11.0998 10.3801 11.1418 10.2895L11.6085 9.2326C11.9976 9.37216 12.3948 9.48812 12.7978 9.57985C12.9985 9.62515 13.2017 9.66289 13.4075 9.69309C13.5787 9.72992 13.7317 9.82545 13.8402 9.96323C13.9487 10.101 14.006 10.2724 14.0021 10.448L14.0172 12.8033Z" fill="#F56737"/>
</svg>