<svg width="40" height="40" viewBox="0 0 40 40" fill="none" xmlns="http://www.w3.org/2000/svg">
<path d="M34.8333 3.33337H5.16659C4.68035 3.33337 4.21404 3.52653 3.87022 3.87035C3.52641 4.21416 3.33325 4.68048 3.33325 5.16671V34.8334C3.33325 35.3196 3.52641 35.7859 3.87022 36.1297C4.21404 36.4736 4.68035 36.6667 5.16659 36.6667H21.1333V23.75H16.7999V18.75H21.1333V15C21.0435 14.1196 21.1474 13.2303 21.4378 12.3943C21.7281 11.5583 22.1979 10.7959 22.814 10.1607C23.4302 9.5255 24.1779 9.03278 25.0046 8.7171C25.8314 8.40143 26.7172 8.27046 27.5999 8.33337C28.8971 8.32539 30.1937 8.39217 31.4833 8.53337V13.0334H28.8333C26.7333 13.0334 26.3333 14.0334 26.3333 15.4834V18.7H31.3333L30.6833 23.7H26.3333V36.6667H34.8333C35.074 36.6667 35.3124 36.6193 35.5348 36.5272C35.7573 36.435 35.9594 36.3 36.1296 36.1297C36.2999 35.9595 36.4349 35.7574 36.527 35.535C36.6192 35.3125 36.6666 35.0741 36.6666 34.8334V5.16671C36.6666 4.92595 36.6192 4.68755 36.527 4.46512C36.4349 4.24269 36.2999 4.04059 36.1296 3.87035C35.9594 3.7001 35.7573 3.56506 35.5348 3.47293C35.3124 3.38079 35.074 3.33337 34.8333 3.33337Z" fill="black"/>
</svg>
