<svg xmlns="http://www.w3.org/2000/svg" fill="none" viewBox="7.32 4.16 35.33 41.79">
<path d="M37.4999 9.33331C34.1847 6.0181 29.6883 4.15564 24.9999 4.15564C20.3115 4.15564 15.8151 6.0181 12.4999 9.33331C9.18473 12.6485 7.32227 17.1449 7.32227 21.8333C7.32227 26.5217 9.18473 31.0181 12.4999 34.3333L23.4791 45.3333C23.6728 45.5286 23.9032 45.6836 24.1571 45.7893C24.4109 45.8951 24.6832 45.9496 24.9583 45.9496C25.2333 45.9496 25.5056 45.8951 25.7595 45.7893C26.0133 45.6836 26.2438 45.5286 26.4374 45.3333L37.4999 34.2291C40.8013 30.9277 42.656 26.4501 42.656 21.7812C42.656 17.1124 40.8013 12.6347 37.4999 9.33331ZM34.5208 31.25L24.9999 40.8125L15.4791 31.25C13.5982 29.3673 12.3176 26.9692 11.7993 24.3589C11.281 21.7486 11.5482 19.0432 12.5672 16.5847C13.5862 14.1263 15.3112 12.0251 17.5242 10.5468C19.7371 9.06853 22.3387 8.27952 24.9999 8.27952C27.6612 8.27952 30.2628 9.06853 32.4757 10.5468C34.6886 12.0251 36.4136 14.1263 37.4326 16.5847C38.4516 19.0432 38.7189 21.7486 38.2006 24.3589C37.6823 26.9692 36.4017 29.3673 34.5208 31.25ZM18.7499 15.4375C17.0681 17.1245 16.1237 19.4095 16.1237 21.7916C16.1237 24.1738 17.0681 26.4588 18.7499 28.1458C19.9994 29.3975 21.5907 30.2522 23.3242 30.6029C25.0577 30.9536 26.8561 30.7845 28.4938 30.117C30.1316 29.4494 31.5357 28.3131 32.5301 26.8505C33.5245 25.3879 34.0648 23.6643 34.0833 21.8958C34.0927 20.715 33.8652 19.5443 33.4143 18.4529C32.9634 17.3615 32.2983 16.3716 31.4583 15.5416C30.6326 14.697 29.648 14.024 28.5612 13.5614C27.4744 13.0987 26.3069 12.8555 25.1258 12.8459C23.9446 12.8362 22.7733 13.0602 21.679 13.505C20.5848 13.9497 19.5894 14.6065 18.7499 15.4375ZM28.5208 25.1875C27.7313 25.989 26.6879 26.4914 25.5689 26.6088C24.45 26.7262 23.3251 26.4513 22.3864 25.8311C21.4477 25.2108 20.7537 24.2838 20.4229 23.2085C20.0921 22.1332 20.145 20.9763 20.5728 19.9357C21.0005 18.8951 21.7764 18.0354 22.7678 17.5036C23.7592 16.9718 24.9046 16.8008 26.0081 17.02C27.1116 17.2392 28.1047 17.8349 28.8177 18.7052C29.5306 19.5756 29.919 20.6666 29.9166 21.7916C29.8863 23.0776 29.3468 24.299 28.4166 25.1875H28.5208Z" fill="#F56737"/>
</svg>